<svg width="196" height="38" viewBox="0 0 196 38" fill="none" xmlns="http://www.w3.org/2000/svg">
<rect y="1" width="36" height="36" rx="18" fill="white"/>
<rect x="4.39999" y="5.7998" width="26.8" height="26.8" rx="13.4" fill="white" stroke="black" stroke-width="4"/>
<path d="M19.0945 19.4231L7.28708 9.74919L3.7434 16.5346L3.5689 23.7768L5.96737 26.9276L19.0945 19.4231Z" fill="black" stroke="black"/>
<path d="M54.74 31.36C53.56 31.36 52.47 31.13 51.47 30.67C50.49 30.19 49.71 29.51 49.13 28.63L49.52 27.85V31H45.83V8.29H49.76V17.92L49.16 17.11C49.72 16.23 50.48 15.55 51.44 15.07C52.4 14.57 53.51 14.32 54.77 14.32C56.31 14.32 57.7 14.7 58.94 15.46C60.18 16.22 61.16 17.24 61.88 18.52C62.62 19.8 62.99 21.24 62.99 22.84C62.99 24.42 62.63 25.86 61.91 27.16C61.19 28.46 60.21 29.49 58.97 30.25C57.73 30.99 56.32 31.36 54.74 31.36ZM54.29 27.76C55.19 27.76 55.99 27.55 56.69 27.13C57.39 26.71 57.93 26.13 58.31 25.39C58.71 24.65 58.91 23.8 58.91 22.84C58.91 21.88 58.71 21.04 58.31 20.32C57.93 19.58 57.39 19 56.69 18.58C55.99 18.14 55.19 17.92 54.29 17.92C53.43 17.92 52.65 18.13 51.95 18.55C51.27 18.97 50.73 19.56 50.33 20.32C49.95 21.06 49.76 21.9 49.76 22.84C49.76 23.8 49.95 24.65 50.33 25.39C50.73 26.13 51.27 26.71 51.95 27.13C52.65 27.55 53.43 27.76 54.29 27.76ZM70.9363 31.36C69.7963 31.36 68.8063 31.17 67.9663 30.79C67.1263 30.41 66.4763 29.87 66.0163 29.17C65.5563 28.45 65.3263 27.62 65.3263 26.68C65.3263 25.78 65.5263 24.98 65.9263 24.28C66.3263 23.56 66.9463 22.96 67.7863 22.48C68.6263 22 69.6863 21.66 70.9663 21.46L76.3063 20.59V23.59L71.7163 24.37C70.9363 24.51 70.3563 24.76 69.9763 25.12C69.5963 25.48 69.4063 25.95 69.4063 26.53C69.4063 27.09 69.6163 27.54 70.0363 27.88C70.4763 28.2 71.0163 28.36 71.6562 28.36C72.4763 28.36 73.1963 28.19 73.8163 27.85C74.4563 27.49 74.9463 27 75.2863 26.38C75.6463 25.76 75.8263 25.08 75.8263 24.34V20.14C75.8263 19.44 75.5463 18.86 74.9863 18.4C74.4463 17.92 73.7263 17.68 72.8263 17.68C71.9863 17.68 71.2363 17.91 70.5763 18.37C69.9363 18.81 69.4663 19.4 69.1663 20.14L65.9563 18.58C66.2763 17.72 66.7763 16.98 67.4563 16.36C68.1563 15.72 68.9763 15.22 69.9163 14.86C70.8563 14.5 71.8763 14.32 72.9762 14.32C74.3163 14.32 75.4963 14.57 76.5163 15.07C77.5363 15.55 78.3263 16.23 78.8863 17.11C79.4663 17.97 79.7563 18.98 79.7563 20.14V31H76.0363V28.21L76.8763 28.15C76.4563 28.85 75.9563 29.44 75.3763 29.92C74.7963 30.38 74.1363 30.74 73.3963 31C72.6563 31.24 71.8363 31.36 70.9363 31.36ZM90.5356 31.18C88.6956 31.18 87.2656 30.68 86.2456 29.68C85.2456 28.66 84.7456 27.23 84.7456 25.39V18.19H81.9256V14.68H82.2256C83.0256 14.68 83.6456 14.47 84.0856 14.05C84.5256 13.63 84.7456 13.02 84.7456 12.22V10.96H88.6756V14.68H92.4256V18.19H88.6756V25.18C88.6756 25.72 88.7656 26.18 88.9456 26.56C89.1456 26.94 89.4456 27.23 89.8456 27.43C90.2656 27.63 90.7956 27.73 91.4356 27.73C91.5756 27.73 91.7356 27.72 91.9156 27.7C92.1156 27.68 92.3056 27.66 92.4856 27.64V31C92.2056 31.04 91.8856 31.08 91.5256 31.12C91.1656 31.16 90.8356 31.18 90.5356 31.18ZM102.928 31.18C101.088 31.18 99.6582 30.68 98.6382 29.68C97.6382 28.66 97.1382 27.23 97.1382 25.39V18.19H94.3182V14.68H94.6182C95.4182 14.68 96.0382 14.47 96.4782 14.05C96.9182 13.63 97.1382 13.02 97.1382 12.22V10.96H101.068V14.68H104.818V18.19H101.068V25.18C101.068 25.72 101.158 26.18 101.338 26.56C101.538 26.94 101.838 27.23 102.238 27.43C102.658 27.63 103.188 27.73 103.828 27.73C103.968 27.73 104.128 27.72 104.308 27.7C104.508 27.68 104.698 27.66 104.878 27.64V31C104.598 31.04 104.278 31.08 103.918 31.12C103.558 31.16 103.228 31.18 102.928 31.18ZM107.881 31V8.29H111.811V31H107.881ZM123.179 31.36C121.499 31.36 120.029 30.98 118.769 30.22C117.509 29.46 116.529 28.43 115.829 27.13C115.129 25.83 114.779 24.39 114.779 22.81C114.779 21.17 115.129 19.72 115.829 18.46C116.549 17.18 117.519 16.17 118.739 15.43C119.979 14.69 121.359 14.32 122.879 14.32C124.159 14.32 125.279 14.53 126.239 14.95C127.219 15.37 128.049 15.95 128.729 16.69C129.409 17.43 129.929 18.28 130.289 19.24C130.649 20.18 130.829 21.2 130.829 22.3C130.829 22.58 130.809 22.87 130.769 23.17C130.749 23.47 130.699 23.73 130.619 23.95H118.019V20.95H128.399L126.539 22.36C126.719 21.44 126.669 20.62 126.389 19.9C126.129 19.18 125.689 18.61 125.069 18.19C124.469 17.77 123.739 17.56 122.879 17.56C122.059 17.56 121.329 17.77 120.689 18.19C120.049 18.59 119.559 19.19 119.219 19.99C118.899 20.77 118.779 21.72 118.859 22.84C118.779 23.84 118.909 24.73 119.249 25.51C119.609 26.27 120.129 26.86 120.809 27.28C121.509 27.7 122.309 27.91 123.209 27.91C124.109 27.91 124.869 27.72 125.489 27.34C126.129 26.96 126.629 26.45 126.989 25.81L130.169 27.37C129.849 28.15 129.349 28.84 128.669 29.44C127.989 30.04 127.179 30.51 126.239 30.85C125.319 31.19 124.299 31.36 123.179 31.36ZM146.581 31.18C144.741 31.18 143.311 30.68 142.291 29.68C141.291 28.66 140.791 27.23 140.791 25.39V18.19H137.971V14.68H138.271C139.071 14.68 139.691 14.47 140.131 14.05C140.571 13.63 140.791 13.02 140.791 12.22V10.96H144.721V14.68H148.471V18.19H144.721V25.18C144.721 25.72 144.811 26.18 144.991 26.56C145.191 26.94 145.491 27.23 145.891 27.43C146.311 27.63 146.841 27.73 147.481 27.73C147.621 27.73 147.781 27.72 147.961 27.7C148.161 27.68 148.351 27.66 148.531 27.64V31C148.251 31.04 147.931 31.08 147.571 31.12C147.211 31.16 146.881 31.18 146.581 31.18ZM159.127 31.36C157.447 31.36 155.977 30.98 154.717 30.22C153.457 29.46 152.477 28.43 151.777 27.13C151.077 25.83 150.727 24.39 150.727 22.81C150.727 21.17 151.077 19.72 151.777 18.46C152.497 17.18 153.467 16.17 154.687 15.43C155.927 14.69 157.307 14.32 158.827 14.32C160.107 14.32 161.227 14.53 162.187 14.95C163.167 15.37 163.997 15.95 164.677 16.69C165.357 17.43 165.877 18.28 166.237 19.24C166.597 20.18 166.777 21.2 166.777 22.3C166.777 22.58 166.757 22.87 166.717 23.17C166.697 23.47 166.647 23.73 166.567 23.95H153.967V20.95H164.347L162.487 22.36C162.667 21.44 162.617 20.62 162.337 19.9C162.077 19.18 161.637 18.61 161.017 18.19C160.417 17.77 159.687 17.56 158.827 17.56C158.007 17.56 157.277 17.77 156.637 18.19C155.997 18.59 155.507 19.19 155.167 19.99C154.847 20.77 154.727 21.72 154.807 22.84C154.727 23.84 154.857 24.73 155.197 25.51C155.557 26.27 156.077 26.86 156.757 27.28C157.457 27.7 158.257 27.91 159.157 27.91C160.057 27.91 160.817 27.72 161.437 27.34C162.077 26.96 162.577 26.45 162.937 25.81L166.117 27.37C165.797 28.15 165.297 28.84 164.617 29.44C163.937 30.04 163.127 30.51 162.187 30.85C161.267 31.19 160.247 31.36 159.127 31.36ZM175.966 31.36C174.226 31.36 172.706 30.95 171.406 30.13C170.126 29.29 169.246 28.16 168.766 26.74L171.706 25.33C172.126 26.25 172.706 26.97 173.446 27.49C174.206 28.01 175.046 28.27 175.966 28.27C176.686 28.27 177.256 28.11 177.676 27.79C178.096 27.47 178.306 27.05 178.306 26.53C178.306 26.21 178.216 25.95 178.036 25.75C177.876 25.53 177.646 25.35 177.346 25.21C177.066 25.05 176.756 24.92 176.416 24.82L173.746 24.07C172.366 23.67 171.316 23.06 170.596 22.24C169.896 21.42 169.546 20.45 169.546 19.33C169.546 18.33 169.796 17.46 170.296 16.72C170.816 15.96 171.526 15.37 172.426 14.95C173.346 14.53 174.396 14.32 175.576 14.32C177.116 14.32 178.476 14.69 179.656 15.43C180.836 16.17 181.676 17.21 182.176 18.55L179.176 19.96C178.896 19.22 178.426 18.63 177.766 18.19C177.106 17.75 176.366 17.53 175.546 17.53C174.886 17.53 174.366 17.68 173.986 17.98C173.606 18.28 173.416 18.67 173.416 19.15C173.416 19.45 173.496 19.71 173.656 19.93C173.816 20.15 174.036 20.33 174.316 20.47C174.616 20.61 174.956 20.74 175.336 20.86L177.946 21.64C179.286 22.04 180.316 22.64 181.036 23.44C181.776 24.24 182.146 25.22 182.146 26.38C182.146 27.36 181.886 28.23 181.366 28.99C180.846 29.73 180.126 30.31 179.206 30.73C178.286 31.15 177.206 31.36 175.966 31.36ZM192.606 31.18C190.766 31.18 189.336 30.68 188.316 29.68C187.316 28.66 186.816 27.23 186.816 25.39V18.19H183.996V14.68H184.296C185.096 14.68 185.716 14.47 186.156 14.05C186.596 13.63 186.816 13.02 186.816 12.22V10.96H190.746V14.68H194.496V18.19H190.746V25.18C190.746 25.72 190.836 26.18 191.016 26.56C191.216 26.94 191.516 27.23 191.916 27.43C192.336 27.63 192.866 27.73 193.506 27.73C193.646 27.73 193.806 27.72 193.986 27.7C194.186 27.68 194.376 27.66 194.556 27.64V31C194.276 31.04 193.956 31.08 193.596 31.12C193.236 31.16 192.906 31.18 192.606 31.18Z" fill="white"/>
</svg>
